<mxfile host="app.diagrams.net" modified="2022-07-06T03:12:37.426Z" agent="5.0 (Windows NT 10.0; Win64; x64) AppleWebKit/537.36 (KHTML, like Gecko) Chrome/103.0.0.0 Safari/537.36" etag="bWmpCi5WQwS--DHi3K6R" version="20.0.4" type="github">
  <diagram id="gz7UEbKGPKBNfj1HkPkl" name="Page-1">
    <mxGraphModel dx="1422" dy="1805" grid="1" gridSize="10" guides="1" tooltips="1" connect="1" arrows="1" fold="1" page="1" pageScale="1" pageWidth="850" pageHeight="1100" math="0" shadow="0">
      <root>
        <mxCell id="0" />
        <mxCell id="1" parent="0" />
        <mxCell id="8UL6sl8LKwnNtbLrQYEb-56" style="edgeStyle=orthogonalEdgeStyle;rounded=0;orthogonalLoop=1;jettySize=auto;html=1;exitX=0;exitY=0.5;exitDx=0;exitDy=0;entryX=1;entryY=0.5;entryDx=0;entryDy=0;fontSize=13;" edge="1" parent="1" source="8UL6sl8LKwnNtbLrQYEb-54" target="8UL6sl8LKwnNtbLrQYEb-4">
          <mxGeometry relative="1" as="geometry">
            <Array as="points">
              <mxPoint x="620" y="585" />
            </Array>
          </mxGeometry>
        </mxCell>
        <mxCell id="8UL6sl8LKwnNtbLrQYEb-54" value="" style="ellipse;whiteSpace=wrap;html=1;aspect=fixed;fontSize=13;fillColor=#fff2cc;strokeColor=#d6b656;" vertex="1" parent="1">
          <mxGeometry x="620" y="467.5" width="230" height="230" as="geometry" />
        </mxCell>
        <mxCell id="8UL6sl8LKwnNtbLrQYEb-1" value="" style="shape=image;html=1;verticalAlign=top;verticalLabelPosition=bottom;labelBackgroundColor=#ffffff;imageAspect=0;aspect=fixed;image=https://cdn0.iconfinder.com/data/icons/octicons/2857/logo-github-128.png" vertex="1" parent="1">
          <mxGeometry x="560" y="270" width="120" height="120" as="geometry" />
        </mxCell>
        <mxCell id="8UL6sl8LKwnNtbLrQYEb-17" style="edgeStyle=orthogonalEdgeStyle;rounded=0;orthogonalLoop=1;jettySize=auto;html=1;exitX=0.5;exitY=0;exitDx=0;exitDy=0;entryX=0.5;entryY=1;entryDx=0;entryDy=0;" edge="1" parent="1" source="8UL6sl8LKwnNtbLrQYEb-2" target="8UL6sl8LKwnNtbLrQYEb-16">
          <mxGeometry relative="1" as="geometry" />
        </mxCell>
        <mxCell id="8UL6sl8LKwnNtbLrQYEb-2" value="" style="shape=image;html=1;verticalAlign=top;verticalLabelPosition=bottom;labelBackgroundColor=#ffffff;imageAspect=0;aspect=fixed;image=https://cdn4.iconfinder.com/data/icons/icocentre-free-icons/170/f-command_256-128.png" vertex="1" parent="1">
          <mxGeometry x="150" y="490" width="50" height="50" as="geometry" />
        </mxCell>
        <mxCell id="8UL6sl8LKwnNtbLrQYEb-12" style="edgeStyle=orthogonalEdgeStyle;rounded=0;orthogonalLoop=1;jettySize=auto;html=1;exitX=0;exitY=0.5;exitDx=0;exitDy=0;entryX=0.5;entryY=1;entryDx=0;entryDy=0;" edge="1" parent="1" source="8UL6sl8LKwnNtbLrQYEb-4" target="8UL6sl8LKwnNtbLrQYEb-2">
          <mxGeometry relative="1" as="geometry">
            <mxPoint x="325" y="602.5" as="targetPoint" />
          </mxGeometry>
        </mxCell>
        <mxCell id="8UL6sl8LKwnNtbLrQYEb-4" value="ADM" style="shape=image;html=1;verticalAlign=top;verticalLabelPosition=bottom;labelBackgroundColor=#ffffff;imageAspect=0;aspect=fixed;image=https://cdn2.iconfinder.com/data/icons/whcompare-servers-web-hosting/50/root-access-128.png" vertex="1" parent="1">
          <mxGeometry x="370" y="540" width="90" height="90" as="geometry" />
        </mxCell>
        <mxCell id="8UL6sl8LKwnNtbLrQYEb-15" value="make trigger_build" style="text;html=1;strokeColor=none;fillColor=none;align=center;verticalAlign=middle;whiteSpace=wrap;rounded=0;" vertex="1" parent="1">
          <mxGeometry x="10" y="500" width="140" height="30" as="geometry" />
        </mxCell>
        <mxCell id="8UL6sl8LKwnNtbLrQYEb-28" style="edgeStyle=orthogonalEdgeStyle;rounded=0;orthogonalLoop=1;jettySize=auto;html=1;exitX=0.5;exitY=0;exitDx=0;exitDy=0;entryX=0.5;entryY=1;entryDx=0;entryDy=0;" edge="1" parent="1" source="8UL6sl8LKwnNtbLrQYEb-16" target="8UL6sl8LKwnNtbLrQYEb-27">
          <mxGeometry relative="1" as="geometry" />
        </mxCell>
        <mxCell id="8UL6sl8LKwnNtbLrQYEb-16" value="Jenkins&#xa;" style="shape=image;verticalLabelPosition=bottom;labelBackgroundColor=default;verticalAlign=top;aspect=fixed;imageAspect=0;image=data:image/png,iVBORw0KGgoAAAANSUhEUgAAALwAAAEACAYAAAAJNhwRAAAACXBIWXMAAAsSAAALEgHS3X78AAAgAElEQVR42u19abCdZZUuQxLIfEJCSMjAIQESEiBhJpDAUZAppDjNEGU+VDPKUAcQm5kDrYiKcgqFAJf2xgaxpLE5tq2AaHtaQQnXtlIXC2m7aU/A4vrr9pFJ697q+939fO61WXvt9U7fvHc2VavI2cO3v+F51/ustZ53vTtEUbRD17q2vVj3JnStC/iulfAgdtihL6H1dO9fF/BVA3NvHZxDNRuu2WjdooxtjB17qG743d7uc+gCPm9vPVQH3ngOwE5qW2u2uWaDOMcu4LuWBuQDNRupGMB9jGaDvi7gu+YC+eq6x/QC+aRJk6Lp06dHc+fOjebPnx/19vZG++23X2yrV6+ODj300Ibh76VLl0azZ8+Ov1cQ+Mfr19PfBXzXpDe3cvCdd9456unpiRYtWhQDmoPZZAceeGD8eQyKCnh+Av/qLuC3X6D31wNDFSSTJ0+OAbv//vt7AZyDfMqUKVWmPa90itfvAtmfuoyaPDkoSgjIYaArmAHajO+PtHsatAtoN9iHTHwcHFxyb5c333PPPYvk5Hllenq6gO/M3PlWzaMD6CHeHEBH8NnGIO8Y0HfBbc6jt2RekFkJ8egIVisSgHZB3wW8NQPTEoyGcPQOB3oTp+8CvsPADiri69U7kLr42GAX8B0Cdl+ujgGBYHQ7Azq31V3AbydgR3qxzbMumfD5LuDbGOw+lVHQl+2Ep/vaUBfwHerZURlFerIL8hYpQm8X8NWuno6HgB1cvevV7crLLuA7BOzg6l2v3v5Zmy7YawYtjA3seL8L5M6gNts92JE371KY7Sdrs13LBWxgX7FiRZfCpLPNXcCXB/ZBrYJqAjv4fBfsnQn6Tgd6T33VThDYu0DN1Aa6gC+Or7fIe5FDb4fgdMaMGdGyZcuio48+OjruuOOiDRs2NBleh61cuTJasmRJoRoerM7Cb+JethvotxsKA4piq6BWSfQ1ceLE+Hzwf/navHnzGgPh5JNPbhkIGBwItvNaNojfxm9gQAZ+t68L+HwozIgm77UpHttZ4QhQA9y4Pm0AnHDCCfF7GCh8ACWZcQB0mO04GBCGgTZeBZFZp1GYMW3Rhi3H3mlyXgATdAMzgAQ/zQAAZch14/P4LgaOz6DB53EOBtD3dAGfgybGRWGqAnZ43jypEY4PoMLTawMAAwMAxee4Z8Z3MXPQ9xArhPw2zTrKACl1pVQngL0lC4NikWvRRhXADlAk4MKpvf/hhx+u0h8y/h4An3RQ4vcwoBSKM9IFfDK+vjWUwlQl9QiwB2Q5cuX/8PAYBAAneXT8G4MjDe8n0OOYysAe7gI+RUcBUBgIvNoB7Hj4mIGcn5s+NfrGV+6Ixl97tsW2bXk6+sfNn48e+uz10RUX9EfHHH5g4ddx6kfXRGeu70sD+oEu4BPoYXwXWVdBLgCP6cp0ENh/+vcPqmC3GQbBTVedl/sA+NxNlzcG3gHLlnjFKqBKAvSFZ246Auw+i6zxmSosxaMUYR5g1wwzBGYAH1B6zU61c8Og4r/xP1/YHL/uQ+MU0I8VGcR2rNJRWhVUjwA6uHFRYJcGYIICndN/ghdANQoDj24aWD7HQFyggH60C3hHgBoC9ip0FACFwYN2VT+l98zTMLBATTAAbDMA6JHPeYFK+c5yuBeC1g11Af8h4BODHby9CgUhPGRXLhvetyiw2wYBwE0W+n3f2MFQte3b7gEv8+ygJiF9HavQhhoDVPFoahDY7gbK40OXaMYT2arc+Xw79GMPDlCrRGVgVM00vQ9K0Qlg55ki35gGOX8hQxjeLgFfz7WP8zw7esGEdOytAtgpM2Hy7qAAnQT2UD4PmqcEsX3bI+CbVI8+RaWqZWVgKLiYvDsCRVPWI48MTVG/ZaE2/0ejNrhHIns1tl0BXlIZ7JQRAnaIxqru3fNMP5poxuAlZ1fBy//WRG2E1GJoewL8GKcyIby9Xby7STKQp8fdZdLEKgSwP9B675OOJ28pceWlvqG7bVTJu8NraVkiVD7L4NVwHsND1yb67sUfPzXR93Ctyv05T8tkKV5+YHsA/BjfRykE7FXy7rTUTr6+/7690cc3HB8tW7o4mj1rZtN78MB77jEnfu+Yww6M7vmryzLl3Yv2nBsfN/R7f3PfTdHahME1Ygdtjau2Mg0eHvctz/42lebuod69rCKTLLaQt9I0M1Mn7xp0bAyCvRfPj85a3xe9NPJQKsADtBhkod9b/9E10WGrlif+XaWKO1Kvno9L2YEyK/Z0MuBH0nj3MhZ1kIRXK53n8XsL5++eGPyHHbQ8Psazj98X9r0a2H08PLw5zg2fh2FmwOsoqinXAsAPSxmxkpfv60jA12+AVzsNkxqyDOkvMhEyG6FUEP+cjZg7uwGe49ceGv+7d9H82IuH/u6uu0yKwX/5+ad70x7QJXz30nM3BAEe37MBHr+PWWDixAlia8+J0S1XX2CjNX3yddw7LEbJK1tT2WA1pMhU5sIOPGwOeBOdufXaC62e8YIzTormzpmV6BymT50S835wfhsPp8+H8vG5s2fFs4PpuLv1zLBICCbEn1Fozeb6c3dlazoW8CNcQhBKZ8rY1ZokAZzD0wp/nnsH7fH1wsiigLMnPSeA/8DlS+OcOwnAMAvwADmEj+O84xm3FvBq3N40O+GaaQBPnbJrdOfgxS0dDDRhIN2/7QHwiekMrAzvTrl0DnhMx8JDxTryJJmRNMC3WQjgSRcDWkOvIX4AnTIF2WecclxjgH9r013xDLD3IvVaVstszXYBeMnlQvZELSv3zj0eBzzSanKRRxolJAE/Cc83GQLLUMDDY+Nv8H94bFUVWptFHrh7UD3OUYesiGZMa6lJDNXNBvj+TgT8EK+shnr3MlSRvHjEAY+HJaurWSzqgFf9yNGHtOTuQw00IyS3z5WP4PKm4/bMnO7M/uy1cJ4YIDO2egC+rxMBP5pUN1NWsYnrYAjw4O0a4LOumD718N0x+EErfD0/MiagMqGFLB+pLzy+T6rTsAywzwH4nk4EfFvxdxnAEeApQ8PrAVqwl7WB9oBqINV54PIlcRaGpz8RwKap2CIQttUFXv3h172Ppe0JJbM0DPDvdlyltR64BO2RWrbuXWphKC2pAb4T9O4IQtUKcwKZgrIE8Kva0r+8FndXLv8e6t3LCFilrNcG+CQZGpeVsfYVoEemBhQKWReX1Ni0ikuRDL/I/8b9Y4Wn4U4E/HDS9aplBKwaRSGeqwEeDzhr8OG4KFZVeVYwBetKTPB7KS1gMVB/JwJ+NEk3grIAr3kuKp3nDvhfPxe985sflSox9jnHd//9n433igpZpp414v71diLgx9MErEVnaEwLN0yygiwA/+6//Th6f9vL0R9/9y+x8bx4ley9N34S/fGtXzTO0TQTmXrgQH/EqtRvd9yKJykYCw1YywC8KdsBrYkyJafyxO/85p+iD958pQF0sgNX7JtpHxvEGalWYdW8+gfbtqjnqHl5vGZaIcYC1s2dCPg+OcJDAV9kv0h4JtfKHtopI22WBl5dAp3s/LNPc55PEsAnPVc++8hz1JyEJheGBl5svDDQiYAfSFNhLToHb/PW8LbkpbiWJgmI/vD6D4xghz312JcyreLyzEn4LPQj9Rwf/fKQkdZpxSxaEsnoYG8nAn4oTYbGp8d6lmajEBS4Eg/lq3YScWEL4GEzp0/LLM/PAR86gN4f+5l6fr9/bdSqFjXxd8rcdGSbDq6US5KhKToH7wIDtCbkqfhi5NB2HO/99iUn4G+9/rLMOiBwjxs6gDQ6Q3beGScbvTzSu5K/M9Hd5k4F/GjIVjVlpyRdDx/BGHFRPvuEBpc+Ht7lQUPbaSQVu8lglQzB9vce/7LxHHnFle4ZC/YHOhXwiRdsF73BgY8mhng8Mg2cx4dmamIOX0/v2YwHhmm7mPFUYUgw/N5//LTpnEBxEHBrnpxnbDiNokZMeebfKwd435QkWu5hi/iid/M4xnMRM/VL5Dw+UeD6ry+oKUlub7/6QlOjozSglyX/EA0/zhXBK9KT8j2ZkSF6x39PKCTf78hmqqEpScwAZW5Z4wvaObvNbGkdl0YxCTChcgmaQwYPillAA2pS0MuF1qE0SfaVx3lpO43Q7MGlwuDuLP/+8nYBeBt1qUJzJd+KKXTqpIvnGyDk2c5OBoBJq7tSyegSvgHYSfaOwuDigTIAzwLWoU4F/JCrB00Vdt0LBRE+t9NOO7Ys9Qv1uogHYD4BJBWO0ha7tPy4LeD27QOvHY9/N2/BWOUAr+Xg4dmrsHtHKODpQYq8clDmQ+vjErfJqwGZ+uDAEAxL7542Ny+9PCiJSZlp6Ddj7GLABw9vGyIA39epgB+xLetDYFoVsIdkWijFJ5eqhQA+iedM2yWBc/EkkgqXwlQOGh7M8j6cHbvHky0HH1pQ2nPe3Ojqvzwnev7vHo1e//l3G3lq/M1Td0UErVRFLBPwaeUGGohdsgrO5eHNcb8AatPswK+Rtr3vdMCPmQDv21RpxrSpsWbDla/e8vyT0cI99ygM8FgVlAbwNkVhGvlDmkA4610GOeBJB593Dr5swKs5eN81qget2C/24i6wk8HzT951l1wrrWQzax4uLeDJc2rAMyk5s9xRRJtlsty1hB+fZNVz5sz5r44MWusblqmAFw3xMwG7pjLMYi2rjdKI3HKqJXn4LvLWPGAlw6DIa+scjdpgAGbRs14OKLZbyqZOBLwxB++iM1AJSrDj7y/ceV209siDa7Y6Wlf7P/7WBsWSvRblopaUQV9Refi8TcuzZ6HDl4DHvao7iDc7EfDGTgWuvDsCUcnPTRvh4vV7b726SeD04L23ZrqeVdod1w00Kq2k7W7nVh2YXbT7m3ZvWQl4ojX1VHRvpwFezcG7+Puaw1a3ePbFC+Z5ARUlepLdTpo4MbfA9dCDljX2Hu2UXbZNWaM016UdE7SmRmn/q+PUkqYcvCsdCQ7OAf/FoRuC8+jQoKxauW8ugSvl4PHgeFP/qrfU8DHDLh6JMzfa8eAo6vdtS6cBXs3B2wA/oUZ1JB9fd9Sh0QHLl7RoM1z56esu3ZgL4BFY7rbbrCY6g03MOmV3bVOqNEkGStvDFbSGzYw9nQR4VQdvA/zMGdPV1fuUMZAZBQRWMuCiCqStN4qrPG57iOuOXBXnlDuJzvgEsUnSlaat6XHvZs6c+X/zSk9WKiVp27Zm8cL5LYDHYgPtQXCQSa9EA8TU0D9N0IrtXZCO5KudOoHO+BSlQkEvBW9cJl7f1Oy5TgG8MSVpW7KnAR46cbkoWGrP5QOi9Z9Jyve2B4rjTZ68a8fSGZl61TI3tKNhwqaqjapr3WG80ymAN8qCQwGPzIsEvOaFaemdVD2aplVpqNBijyLXTtXUeYz2dyqj6WnZoPe9bjFLQGbyGi3mr+tqPuiIVns2laQN8LN6ZrQAXmv7YJLx0sOR74NygAJhioXXoc+RAAoDyCcow7Y0qBRyDXwV6QyyVKbleKFm2ODAqw2g+M4od4RsPXBfJwDeKBpzdSFo4u/bXlZvoGlKJW+eRzdfGGYBpNRI171P74JKNjptLA6v/Z/PkFlnbgIlyJs51WUapM1tDXhXL0kX4En6C8NqeQ3wNm+MwDavrAkEY/DuBPgqdvdtaf9RA31aT6/p511reJWZYYhn7/LsT1M04PttC7ddgL/zxk9+CPjaw9OCIBvgEcBmIXyyCcYgfsOeR3nNJGlM64LAA/801x6SzVJip34OeJblanvAb7ZtPsz7qmu2auWyxoOKeaii7Mui12ISwy52eFDw8NDDVy1gBX3RFKS8h0xWHt6VqVFSkqsNHv6L7Q74Bn/HEr7Q1tfQwJgAT2nGsgCPbWAAdqI0VSs4wZNLOiPvYRYSYp+AVRavZEGSyTLaN2iV+Xet8ZJPOw6oHTXAE60pC/C9i+bHdIYAXyVKg3ty2sfWNgf8GWRpNCWli84oVe6tHPBQS9bv4X+2dR6e0xlTWw6flhwL5s1VOTw9gLwWQ7hsfW2aZjnkeLvIqgCeKIQW7CcdQKbCkWugKwW/zRzwuIf1wt0bbQt4mZ3R6ExIr/dvbx6Opb5VogzDQ9c25ZDnz51dqQ3GYN9/4v7cgA5P70PjlIB1kG1f+kd497om/qvtDPimBR/QvWtNl3wBP3PGtDjjULUsCBaVg39SpTWvjFDSoDJpXOFaW4sZxLfIpgyYvjpGbiaJMA9k2xXwo7bsTJLWHJ/oPzmToCtLW7Z0cawFwZQ8YcLOpcUTJgoR0uMSAIY3tgEd74X2ppfHYBh5mgH+f7WtHl6qI0079SXp9f43w0OVAvwtV18QT8fkpbDcr0qUxhVUAuTw5iYlYyh98eDvozyDBz18nb+PtDPgB326BPv2omlOU06IXvzOI4myC/BeD3/+pkxnCVCY6VOnNAon56Zc95mXhp3rhKSGyAV03LekVE3pgjDEcPI+61hxUDsDfqutpV7a3fgmTJgQ/bcvfNobkPKmZ1F8adq+ctXymNbA01cF8KbleSG7F2ZRSFMWj/QxnPxnHfCvtW3XAklnTLt8+DZfstlZ6z9i9Tzw6tpqHdqeJStwPfXw3XHQiod3xinHVXrRhgvktlZ5afvPC/6OLN6f6pX2e9sZ8AM+dMa20inEsOLovL84sSlYJPqiTdlcY58lwPbde2EM+LUVas+BbA2oi8kw8+E+5RVoK7PMqFKU/N9t3VuSa99t21K6NDR5Ge9xkyWXv/z80+Pjr61wP5ot3300+uE3hxv21ivfjl9/7cdPNL0Ow2s50JlBBfDPtDvgndmZonfTJpNNWLNOcfbMnFYJwAPYD37mhujaizdGZ516fHTgsv2ivRcuarG/Hb49/vy9N39SfR/fu3jjhvhzNDjS0BmeZ68nNv5Us73aFvBSCqwVm0ILTnmBPSuZbJPU4Pg1NQ5/bOEABxgBSoDTBG7NAHQb4CX4b71mwBv4SnZmTMnkvVxITShHwA+7tDO+zVOzNPSL12SymjYnjT33xH3RuiMPKgzozzz2uRjkvgBPA3gOfPxu4PrVFp07ZMA1+3i7A36rSztTxk4fsjelaclgFvazkU25Ax3e/OhDVycGehrAk8Hbu/au1RZ8lNITKSeh2Cf5BWJvVRPgi96hT7bra+wcvW1LW3UNADc/6dg1qYGeBeBhiBF823GUujdwxnr3zabmOlXZPv7W6y8z9o9vF7DDq2cFdAl4UJSkx5CeXlsNlceyvUIBXy8ujRrL/xb+TjtrFwn4k49fawR81cRomsGTZg12DnikIbX3QZuQ5cHnECvg37Zsj6WjQX/bAp73EjEZcuyu7eSLTEtOnTLZCPgkmRoUakIVg0kN6UXfYBKAtKUhTYAHVaLXQJngtfGa6ZwwQPAZiiPwe8jbG1KR42WCPTHg6159a0uHrsmTo9NOO61JCCZ7z+RZafU13u6jKVOTYFEJAB+6TXsSM3legBJgBRWxFYiQQsQx8Dl8ngyDArMG3uPxQdJMEeX7Dd59mC326HNYNfTw9ZMdlxdz/PHHR/fff3/0yCOPRK61q2V7efSVVwPXhJqaInb54BQCIPctAGEgYlBCNkDKSKmA5Puo4vOaFIPkB8i6uAb3M4/dY7r3r6V4bluzaKGdpJg0Lr36bbfdFgMddsMNzZsUmApOZRagNpzUZ6Q1aEXnu+W7LJvntXAbHpeKPT5lflAsgFMTy7kEYz4yYa6g1MBvWgaY0voL9/B1Mdi4xtMBdA3wPmBPQm0WLlwYzx4YcEluoGkXQEiFqTMWQONDVbgwKo9F5PDkNm+OczQt3JDiMDLaFdAEThSLcF0Y+DaTakpTv8mUNlgmpekxpR9XrVoVnXXWWY2/0YUgBPAEep/uBXxmwf8vuuii+Pd9B4BpQ2P0nOetJPDgXd5efr7ItawYYBzEGgh94hDQGhocSbXvLhkyHBSeE2cE0pSlnpsrkaWpBxZbtQUZPgpJTROPADeEy2NmobjhyiuvjG8m/sa/16xZYwW/LT2Jni2SDri8PQ/SaKeRKhoGBjx3HjORtq8rzcbEALgB+Bs3boyfF/7GMzP1rKlSHn5Qozm+gAfQ08iD4RF4/IBjIVME4MPwb9Px7719UKU2oDXaw7Ptdo3BwPlvVbe6oaCUUx4MVtrkWFIW39nKtMEEQExOCcafCQYCgR3OSsvq1Gl0X1Z7PqUB+up6Hn5U8/QuwKP6Co+eBcdDhojfUOL2dDPxGjyJBvxpU6fEgjLs98ppjY2LmsAsFzlUoWuBTbILoJu2r8Es5Xv+GBRzZ7euScY95x6dHBLeA+hNiQ6LjdUx11skhx/gPSJtZuLw+++/v5G6AKgAsJwCiargPY2qwEPwz9P0CF7PPQyOy3nijjvu2Pg3dgUkcRloje3aAAhXhgLAaYc9nih1mYT/xynT9R9xPg/uwfl7oDUJEw+bkwA/NFgdCT2xEDkw3QgAG0AFMPF/eAO8xoGLz3KPLdOjMHyPuL5875577mkMil122aVl6R86GnDwag8FFIeDHn+/+sOvN1Eb+ZlOs289NNRyX7j3toGdAI/Pc6Nn79GraJx3PsgM8HWwb9WCRg5IeM8LLrjAWHhyteIAqABCgJFAiRtEFy7fJz5IYORBrM/N5h4fPVFcATI+K4HPAU1/P/v4fep2mZ1muG70wpecXd5f00DwNZrdgTXD8xn15fiJwI6Hr4GHjIOCSwsQoMLD+0xhLirCbx731jyIJQMNsoGeBobLo+B3cE4ItjRA80HwpduvCuqq246GfWllNkYClZ61fM9meNZk5Ny0Z63w+9VZAH5UXhQBkX5cUouZM2c61ZI+4MdvyQtGIMRnD21Q8CBWcnoZ5GrAN2V1aLBooJdNQgH6iz++vmNB/9efuqRldpbPintkW+6d7ru8p/zYOBalnWUALChOb2LASzUkBzvxYx+jfjT4P2iNXPRhKzTx39QCHe19yfe1ooacen2Aj5uueS9b+f3M9X0dB3pN504ZMY3K2ByMBlw8U3wHGCNPj+eBv+Hw6NlSRi5Ec+NKO6pFHirq4P84ATopCji0bA0yM0nz7doNc4HexAW5F3GBXgIfv0ev0Tn4tKdbe8RBHQN6gH3KZDtvh/F7Zno2MvcO7MhZwmYU4ymOZzgJ4JuoDJ+S5GjWgCV5FkCfZnWTdiNwHraZQDOZBrPFIhrw8X3u6TnFMtn0aVOifXoXeqU1q2yoTeBaJN2wJQpMgSr/DI7h8xyoMov77+E8+7wBL1tscC9PHJmmG9uIPPbYY43UhSqiMB8RmCxiaIDjQHQFRbacsctw/XzQa8Gu5KMa6EF52iVPb5INSOfHqZ7Ju/P7r6WT5cAI0UgxWjMQAvixUA9M6kV5AwwRdVM2hW4KH8HyArXsixYc2fiiaaCEgh6DlE/jGp/HQ5XXDtBLegPKU9SKqaT95U2CMM3B8NhO8+7yXrnuOzDh4c1pJ2+nBMG0mskqGbBxbW1Ea6DHRXDAmjwxbhp5S/n+V77ylcZN5DfFF7wy3nBlEvh5Se8lZw2qFMtrB8BP/siRLffDV4pcpPTA1Sdezu4+3t2UWnZRZEMOfjxUYxOypK/PtFgbF+ECi8Z1+YAwURZ+0bAHHnggevDBB63c3DVNmoLYkO9pNIvn+znd00A/eMnZmeyokbe4zGQaWLl3154nx0BIXt4RL42HLAdMvLEBAYQuDCCg1BGVhWF42MT3ASY+wskTk3fUJKSwTZs2eQeWWlYpJIjV8sma4YHxWUoOIEqlmTw9DDuGaKuSyth+07S0zyXLxr3CNV5yySXq7G3y/q57jOdC2T9PijOQpYcf1rw6TtpS+YpMi7zvuOOOaI899mga5RS4+tIKk/Fz8c3c8GyP7/fI20hPRqlKelAynSvvCSS5Jo9aBPCRZjQsuDavJTj5ZFuZv0n+odFHzfuTotVUfMLrXPZt+P2BLCqt/aaMiSklR97dVjk76aSTGjMAeQryAC564+N9Q3LtWiHNBXqiNRpXpRmN7hE/lqb7BuhJrmtabuezeDqEn0PKHLpJglzg40t7uEMxBbq+WRhympbi50CaSmsPX9yBH9OmaCr7mqYpvK6tQgLgzznnnKalevQ+3jNRnDwKTJoHdvFMLkHWzoEPQBfoqRjl2j0PgSQNkBCA08LuJCD3WYRjeg+NtnbddVeVZmqVUipo8iorsCOLmnQ/lXtp5fRB0gK5OoVoTSggcRy6UOlJJafGTaK8Ny7eh6Jox/EBvaaRsX0P1+6qE/BzcYFeFqNc+6Pyzcn4Am1anJ1T94CGl9WEXSYtkqSr8l5rKW1brEYMwgD60aSAH5d5cAo+fFN/+DxXv/FAhMReEvRapda3FsC1FklBL6dX2/f4tGqbkSgw57OkJjfW8vLg8a4UYRaGwTV16uQgFStAjnsuNS7y+clZkEu+fYGu3VMaRDxDZqM23tydHpK26lx6XVcAwgcRPgdaoxWMaPTi5vGYgIpcpsUhtqheKix9ZgcX6PnDc1UNJb81ZR20gJW4d2i/GZvhd6gdx5GH2HsD8XuAdQ/aGoJp06ZFl156qUoRaUbgDEHO7pTpg0ms4fskIJNVflmLMXl5r8yMlmbCiZA0mP+wQczTJE3QLG2gGkJV8G9XNkgThplAzwNu1+zHvTqdhyXr0OgPIzk7bSIMXg7Qurg5pz8EcJ6SnD1rZut3GKB5pZskI1geue+++0af/vSnY8O/GwPpmGOMCQTi6XJRty0NSjOIRgXJASqxxOpE4jHyvng4+Dc/OQ5UOaJpfarNA7vysHL5FxlXaYZoYHz0OSY1n7YK3zQr2KqI+CwHAlWocZ9sDx6eHQAH5clKg4PVWbtMmtjyW+vXr1e98zXXXBP/jUD0mWeeid5+++0me+KJJ+JtOzEYbrzxxpYKNGZzDnauuNVWOfFEB606M3Q48Grg5LUhGUaO9iB4FoODnYKaEJDTAm0XDbJ5AaI4Li4tKY4vDXGlLCXobTOJ5NQWVL0AAB3vSURBVLk8EHR5PFPQKjuFuXrP3HbthU2L2PkMJZWodN5z5syJXwOwJdjJHn744fgzu+++e5NUON5y6PzzE83SGBR0b3F+nqAfTQR4k9HDlCVj38yNXJOadSZBrpKx5X61YokL9BqYNU5u0hhpA5A7C1IK5hGgTpo4UXUadE08GOfxFf6GzNsEdjJsZYTBJGdWHruYlvH5aGqo8ZZhqZ+xPbetq5hXUYHzV9N0nwToxPeJwlBa0mb0Wdxgyelwbtq0KfvVmICvxSamDIPGyYnemR6uvB/883x6TzoD+uTSeZZl5cqVKj2je+QCPM1eIavj8BxsjoezCSr4mbIz1JI7E8Br5XKbfNfGX2XBIQnf902Ncm2Ldl48PgFgJZhNPVRMkmTDukv12LYAjmYqeT0YrFy7lKaDG0+XwlAJTwP4Qw45JBjwLnGaBD05WHHdY8GVVgb4kXrjpUHTYuY0Qi2fDghZGgmdXBkaqgzTjME9Dv6tDVhT/0TbwnAa5Brt0roohDoFul5esfRdaMPpAs+h4+/ddtvNCXj0+oEMQcZ3e++9dyPlqM3Q/N7KnL8m7zZQzv5QwPdwnTHXxfMUJf2Qj+BLUyXmCXTy2K7WG7jBPsGuawmjK4vDG0zZzoWyWrw3Dy2K0WgI0T2fZyCPgRYqphnoqquuUtWP1FsI12gC++233x5/BrRIBq0+95izADl70iCmf/OBmGpNq9DCq4srSPMQWr30VTEmoS6mHpIhZgt2JYA1j+nKUvGCmu1ccRwCNRVhiMrwOIWbpD8mLTmAa+vLL6+LwMWXbd51110tYMdr9D6AL9OSvs+d1044sOk6JO6EYxvNTC3JT5hGn+siuGdxTVNJjeewKUPDBUhy6vTx/hp/DvH2rkBVei1aOmhTmspZSXp2LTaQRTT0CpJbie61114tKUrN0dGsPnXqn3XzCxYsaEgL5s2b1yhIIX2pPftQB0bPUpNy8EyZiBNSAX7I1lmKKoemqYqP8JDOAgRO6h9u4t48I6JlYnzbuLn6ybvAKzujmXQ+afX+rkKZLKZp2iC57xZaqGi9gVBcIqUjFYto8KCJFoz3GMK/aWd1Us9q8hQSmcnuA1zzLmmzScZN3j4XwMtMjE8LO/J+tlUuITlnzieJ6/mkskJmCpdwzabs0xZvu4pkvoOAC/E0YGiZMjkIAVK5T64EO4JNeO6jjjqqacDTMTFDmLYjBVXC+3Lmg8bGt7AoNUl8SyUlDelVcEoFeC21aFqh7kozhRaeuKcBaPLymD7xANd4aDTFR0BnW0Aj25eYimkUC8jzkAOP83YTd58yZUp02GGHxVsXyea3BDpkWrQWimifiM/h+9K7J0mT8sImzVye93NzZoDnJV5XGw0qT2urgjTtuY+RZ82TGtj0+z5dj00dsihu8B3gtCLMRIX45g/yfZmqk7xd24wCvLyvry8699xz42oqjCgNd1pEH+QOjURnSFjouj5bzMAxRXILZRANGzprDGQCeNeINGnFpcowKdi135DSUgKVK1PDm0rxNKAruExDd1x58hB6QxkiDexyjS61OiRgavcG3hxA52CHcS9PAKS4jHqGkuF3Fi9e3NJBms8eGFTI4yPAlX35NeNrBxT+3mNYc92T6ZpW0QDH2KeEvKIEgE92xKXH5nw7bRpSBpYu8PtKI7RVQVkUz2z6e624B55O2wxJmrLTTjvFC+ovv/zyFrCTaQ6HrlHSIyk8kwMOsQEdlzI9Ps9cCb5HlGLpmGvXP9+9nLR1g331ApWx7Ro9GI/eIt50hqbLPARnMh3pyvhQsO0acL4DyZW54rOLtquJBnbywgC7fA9gX7JkSSz51cAOyvKpT31KzcdLHo9/Qz8vYwfQFj674Hzo+LKLtC1JoSQ0+gwF094s2nTwXfpGTFVYWRWjwCukxbQLOEXt1s2ncZ9UJz7jm2UiOYHtuJSRkesPTLUMk2yD0o4a2PH6LbfcooIdgSfeA6fn+3HROXMeT47tlFNOaaEzyO/LQDkE8DRriNdGct3UrA7ycVVQb1kZJTcnSCIiqor5LlhPmp2hmMKVFTLtd2oDu0w7YoHGcccd1wC0BDteGxoaarwH7q3Je2kGAXApFcnrLhhU2sbToYAP3fQgC8D3mVofSGWl7KrL05F505AizKZt14AoBVFJB5upzqHJGwjsWo4dYD/xxBObAM0N6Uj5Hgcmd2AAOb2HGUE6NS1XnwHg+0vdmFh2G+YUhqZuy8azbWlJVnRRRZfkvDZPTtIBF+/X4iECmSnHDvqigR2fN71H6Ub5fFesWNHC7XlCQmZx0gJ+2rRpI6XvxM32bm3x8lyBmNfKnXYDflZFMdP95OV9brNmzYozMSawI3AFxQEnl4HreeedpwKeBhy075pqUebp0wAe2aXad4aqAvge7uWp6scXWXca2MsCvo+mXRrSjgToo48+ugXQJrBT4MoBz/VU8Or77LNPU+c416bUoYBHlgd5+/p3qgF4zcuTLpyKK50MeHndSRsLubJAWv0CgSHSgaaN4dA6A6A1eW/TexS4YjBIeuRDsaSMIU1akp1XdQCv7QtF+od2zs4Y922qZyZccgNbz820GR9wclQsYbLJKQYCcu8uQNN76DCA7UZRDALIAEwUibRdF33aoOAYCJohYYBgDYMVvxMKeMiMqwz43toU9CeZQ01aWa2qAUz0EPBgbdtu+i5Kp45bPnobAOUTn/hEXBQCqCeKDgQ4v3Xr1jUBWgP7ZZddFgPa5/y1cr/MSM2du7uzVR8GJs4fg7TtAQ+r8a2trtUz7W4QVHEALVu2rElklZcBmAQWLLIGmCkI5WlHDBxOR/i5UiYGjZYwMNLWJWwbCruuxeeeVR7wUnDUiVbPGMTGK4mYukO9pY8tX748Wrt2bRN4KZC74oorYgDj/wAeOnu5wH7CCSdYGztRB2LfNn6u3pU+u4q0JeBrJ7RaU9l1miHrQdeJoFBqwrWpGtkGcH6ylsZItdfAn+n/4NMUsMGbEz1BlkXeW6IoZEg/crBT2hHv8UUdITuNUCPXBfN2N96XmdOnReeffVr05EN3q5s3oEVgaAvvqgN+QFPZdZLRBss802HKRmjeHoDmAwYGEBM92bBhg6pYpPQhPgP+zukAcuzXXXddA/D4HPF2DvbTTz+9hcagIWvoXlByp5LZs3qiR788FP3+tdHoj7/7l+id3/zIucGxr9evOuCH6eSoB2GnGTIjHIga2Mk0OS4FlfDgsvhDhSEOWG4ANvZXwmduuummmOpAf06ARt9GkgbAzjjjjMZAwutcE5ME7NxmMsDeev1lMdDJXICnvaV8QF91wI/SyeGBdiLgOVClEtBkSM9pNAYBJtKBHNQ8GCVvjyCVe3QMDgAen8EGcXJmQMEI7asJ+FAx4nXu3WmLnTRdh+lY6446tAnwf/jXF7w3PW53wAeJ+9vR+AOQ/N3l7bWSP6UZTfQF/5dZEAAX0gICO1KCvIIKTk+Dhri/5O6uzsI+hhmCjvf6z7/7Z8C/9YugY5i2tK884Gsn08sfms/yrXY0H/5uM6TzNG8Pvi+qinHqkEBLqUeZYwdVIXAPDAzEGRh6D56e4gO8x38vy63pFy/YI1q8cH701GNfit79tx8HxwQ2alNlwPd3esDKC04waMoPP/zwYNDD22uLqGkhNSgMqA5+D/8eHByMQUxqS1lQQh2A+D95fB4DgAJdeOGFmXt4Dto0W2ravLwA/HCVAD9EJ4aHlQW4qgZ4zFoc8ODN8LyhgOcNkLSiHK6dr+gHfz/11FMbgEYLOxnUUo79zjvvbASpADqX/WYVsGZtSHnaqsrsOkerBPjRLHPwVaREMkOTFvC8ZYatYMV17ARoeHR4dg528H1IdYn/Y8uZ66+/Pv43PjN9+rTGMUFBwLk/2LYlen/by9F7//HT6A+v/6A00JuKW1UG/HiWAWsVg15+8wG2rABPBSuN23OwA8iIAcDHidZcffXVDf7Oi039/f1NeXm8tqR3cdOxkU58/u8ejW3L80/GA+C9N34Sjf/6ucIBb9qFvJKAzyNgTbj8q20Br62AovYZ5KH5PUYXX/L2EJFxsPMsD97juf3p0+yOBCnGL9x5XfTm/3imUMBDytBOgM88YK0i4HkOPivAm4pTtGhDAzuvnlJAS7IDrnGnlU04T/L2+D2va63Rn/POOCmz3QJDUpwWwG+tCuCHswxYaSqvcg4eYE0LeFOvGOTdCdByOR733vQelyYgoNUkwQcccEAsP+DKSr4XbPPW9edHn7zozGjdkQdHM2rARxYlTRYmTRFKJgqqAvjRrEVjVfTwWQIegDT1iqEldxrYyXsjx87fQ7BKhShUWTngkdpEVRfZHr5QBEBHxdQGRASyP33mwdyzOiZKU1XAZ15h7WTAm3rFwAsnXY6H1zFQUKzi0gTMuKYMEERcIaCEWhLBJUmI8f2sPH/bAJ5LgmETlf0/kxj03p0IeGRZbGDXhGMEdk3jTtJg8Hx6jxeiLr74YuOsm9Rr43s8jYgdwtPOAKd+dI2XOrVmfWUDPhdJcBXVlmkBb+oVYwM08XOpcedgR5FJKivh2dE3BiIzUlaC0vDBBtCm8dDSK0MikBT4tkUmVQN85pJgcNlOozRYDWXafMDU35F7b1c7PFOLa4Ac+nk6jvaM5s6ZFR2/9tAYrKFZGUgU4OH58UB7QgYSPuurX0JGsGzAb81aEgzeVkXA86V98J6+gDf1Y7d5aHoPcmH5Hn5XC1xNSQMMLJopkJd3xVnwtsjMhOht4O25CAw8P21KkkxIqIfKBnzjZLJKJcIrdULhCWlHF9hNzUxNjU7hpbXA1dT2AhSGVliBEqEiC4rj21OfwO/jsfEZBLbk8fE9H6GZqcqah2IyLdj7+A3PagEzHlwRXQDyBLwpxw5vRYDWPDS9pwEaYNd4vsvZyBVWJBtu7I69aH6m6knQInhtWgRukv9iYGBmmD5tijOBwa51pEzAD/Jcb5YVzSqKx3wBb8qxE9hBKzRAg9oA0CQKk2DnmRh+3zXnoKlNodUheiC5/JU1cMI7owCUNJAFyCWf95rRd5nkfd/TygvSAn4kjzWsOFa7At6UYwcw8VmThwaYpQCMv6ct7qaCkra9jIlOUYzkmo0BXM7j8X94a2kfO/bwaG3t/3N2y29JJ2IOdt1jZQJ+LGWvb2MbjCrq4bk8GFkXCXhTjp0aJ5n2UNI2E+NeX+PyWkFJbl5mW2EVYmuPWBV7b3h+FJvAuX161WBAXMFmDm50nCTrEEoBfO2He/Ja0lfVFVO2BSCmHDsBWsu20HsaoAnsGvWB55YOARRKbidP29Ggw68tMwNv7tMwCSAHUGEmwON1GhxJMjQ77bSjuthd3IPVZQC+SSGZlUcGqODh2wnwphw7gVa2qOaA1gJXKjhp9MbU5ClJRzCtSERe/Lyz1seKyZDjuZo5hcoK8ig+VWZJH09JVrWnjfQ0RxxxhCqBoHw9yXVNgNaCU5OZgtMk5lMNxSooNFZCgyWsjrJ5/aRA9y08yW5vaVKTlVJIUmBY5TZ9LhrHi1O+BorCDYMI94EMHDyrGdS39A/A814zt99whcj4TMxUQRmYix8uA/CZF5zowqpYdPIBPDww7gXvIcmt7EA8pPnS+2M/a4Ady/84veldND96aeShQuTB2uKbNKnJSikkaeqq4uIPbWqt0sBELEG958lkWjJEJ4PuYa///B+iq//ynHgRCALac/o/lpq+cENLvnf//Z/jdbSLF8wLSU2OFw34XApO5EGr3MSJT615Ah5ZFzJsaYPfW7lyZcz9YbyvDWYPbG4gbdq0D73yAcuXJK6aZg1yPnvA0HE4NGGALGGRgM+l4EQXlUeP9TwEZPCgmN3IADyAjPNxZHDIsF07ViYRaMmw6wcyPiGGQcA3J9AAz8/7tmsvLLf/zK+fi9777UsxwNEl4b8/8JkY6Aet8NsdRjbBSpqpqVTBiaatqu/tJKutZZikMy7Ao/hTFtjf+c0/Rc8/9UgM8JBUpzSwCQb4wUIAn2cPSXjPLFOcRTVjKtq48CsORs85p7KAf/bJB6xpzRSbI2wuCvC5bXoAsFdxaZ+NS6IFXlLgYv0pKrA2g/eWhuWA/Jw0sJcN+Ddf+fvotBOP/XCT4uVL4ywR746QZnZN2rKjEi05eMBa5ZSkxiVRfJKcnAwtqrNo0qS15qPzwb99AD94ydmFgR1b3syo97X5xlfNC73TbiZXFOC35rHpAXnOPFOSWdEvftOx8ikPUGcN+HNTboDgLRH+3I3Rzddc5NTS2Bqo+m43lCRwTSUYy3KRBgWseaYkszo255LIkBQNeJ5frwrgQ9fC+iolHYHrUN6A789jhRNP9+UJ9qwAz1OTEHgVDXhO+/C3CfBcFoxF2lmDnCS+JiFa0k0Q8lz9lFgwlrWiEcfLUyWZJeB58IT8etGA51ojUw4exqkPRF5ZbX6AgJPkwdq6VZu9+sOvxzuGZHHvk1RcKyEYo0AwT5VkloCXmZqDDz64khyea/R365mRScNT7plDxWPxzn3TpmZ670O18ZUQjFH0nWeGBuebFeBlpibJXk9FAB6fbQBl0sRUXp13BgPoQ+UGSIum2ZHboo0fzAXweXUo4NNUnp0K8BtZBsRcRFZ04MoXnJh0NLATTzwxsXiMg50vzAZoQzoc4DdDd98OLECN5AX43Pg7XUCeGpqsAc+DpyVLlhQKeAwwfi5Y/K0BXu7cl0S/zrMpAL7voCGuz1dE4e9vPTSUaQwVyuNL5+98ispbA5Ml4MsMXOWmBpACm7w8T2GCliTp2Q6vDrCG8n2YnA2+8dX0gE+zxrV0/k5BSN7L+rIGvAye5ALqvI2nHG2pyTVr1iSmNQTarFpiQ0S27qhDMrn/SfPxleHveW9Vj9/JcqM0GbhCq15WatIWuEJYxs871FOHdBdDqlLT7GBTBWjgIQvOQ6YdoqupDH/Pe5UTrQ/NWuyWZBv6rANXm4BMpicBzKQeG9/TuosZ+8NDA//GT+Lt6KGD59r3JJ0WbKpVqHizBHzu/D3vRR95AJ6vs9xrr70KBTwaLvnyeLzHPwutS5I9mGQvGsQEanpSAB225vBVuYr4oOLNEvC58veslwkWBXip3iu6AMWdBCTDNi8vt7p/7aVnvDcihoRAdhPWYgGsg6VVTWSv//y78VaYIb0k80xPVoK/F9GHBr+Vtda+bB7PMzBYWmgD/Jlnntl07qAX8UbENYBinakN8AC4qV88Bg0WYn/w5istQPdZq5phz0mvda5B+ves+Ttx4CI08PiNPAZWmTx+6dKlTeeCQpMN9HLhCHbiJoACsNh+Pga/YydufAafxbb1HORo3EQ7euP/CFKHP3tTNHtWD5P4ZteqRJELD2QB+K156meK6lKQF+A5jy9DSMbTk7ZsDRWieCcDGDqLcdDyAYBmTNw4wOHB8V208QBlwVpVzBoEeLINJ/UV1kXCJ1sTpH/PQz+TZV9KH/qU9XEljy86Hy+5uS141agNTIJUM3zmi0M3xACWC7GxZlUbOHlTmiTZmtL170Ut2s4L8JLHY7e8oquu/Lm4vDxM7sa9c+0aNn3xNhXooCWmTgPw7BrQ4f1l+420aciAbM1wGsDntn6VxFdF9ZEkwGfZJU2bVovW1WheHtVVF+i5kpIM3hs8XAMwvDs4P+ypx76kfg6v4f00rTgyKEKNpQH8WB7rV7kWoqi2ekQ98ogXZLagaMDDy8tND7ReNaA7tn728bOZMCG69IIzY5C7aA6nO+DyRQPdopEfCAa87D+Tx/rVIruM0U3JUl5gyhb4picBVHhn2g8KoEWqMUkcIBWUtBoKx0+6Awi4OXg4vDaoDRloDF7T+Dy3CbXBU0bPT1uzVe/+M1kGlkQBiig4ScDnlQLlNxzpQh+wy43PbFvXJN3puwzDQLvhhhuiVatWFfabSvDaFwr4XPpH8iCjyKZLeasyeXpywYIFTh2My4EA9L6eHp8DyHBc3nMy1ABS8H/TQHQ1f8V3cYxHHnkkto0bNxb2fJWc/Ggo4Mfz6B/J03h50AuXbievheJSo63RGpNXx3dv/8x90fkXX970OugN184QqEFTEKhl+VzgjQmosCuvvDLm/PhNbTdAvI7v4DMc5NzuueeeTM6NZ3imTJka7b/ywPj/kj4BT0I23OcF+Dz7v/OIOo+MSZkLTVy0xpaRwgN89G+fbgF9njEOBh+AC9BqgM3CpB4/HW2ZGn32vgejJ779bOwgtFmyvh/uuyaNvFMOnDXPphFYJH+XgMyrsitpDTwxmcxyrV27Nvai/LUzNp4XP8w5u8/NnFOTN8ZvmjxyHnb//ffH1AbnkIQqNUmgr74+vj+ue1SbEV4LClrzkhPwab+Mpql5a+8lrTH9DsD+zjvvxHbzzTd/mBXpXRI/zJPW9wf/9sKFCxveGgADqAG2EHA+/vjj0dNPPx3bCy+8EI2OjkYvvvhi9Oqrr8b2xhtvRG+//XbD8Novf/nL+HPf+c534u+5fgM056KLLop74uOcvZ9dDeAEdgCfv3fJJZfEJr4z4AX4POUE3AOWsa0NLbzOc3UVpzWmQb1p06YG4N96662m9/BAr/urO9TvgUsD1AALcWcAyAWyb37zmzEYAUqAEwagEpA5iLMwDAwcF4MFv4XfxmAynR+uA9eDWci0e/i6vhMagD/0iDVNgTb9rgiSR3wBn1s6koOhjF0+ipAjyyIUu3//jz7zve99rwF4mAT8rXd/vinu0CjI1772tRZvDDN546rY66+/Hp8fzvX73/9+fP64FjkLgHphxxRJ92A8YMW107FxLHYvt/oCfiQPOQGf7svaeJiDsaj0WC1WuTm+0Tvs8IukgCcvDmAQqKsK6KS2bdu2+Lq2bNkSXyNmBL5SiwOe3y95HP6eL+BzSUfythZl7cPKS9B5ZohEw8+xOuA30/vwXgR2gJ9nIfBAZaZGZlTw/dtuuy0eBPBq8JREU+BB2w3sOGcAHd6axwE+gMf36Dj4Pnvv907AS3VklqDgCyXy7DDmW/TKswagVf0QRDUWUs+YET355JPRr371q7hNn+SpnKP6ZGDA6REI0iAg3k6cvUoDATMTBbq2IBc0jvffwT0hwCMPT68jMKdj33XXXfzejPoAPpfVTXKaL3OD3qJmGVEAgXfvqdk4/4ysioLK3L+pZaOAXyRJQ2qDoOiBQDSFwC25Ok9dYtbCOWuaIF6nkFks3EOKZcT9HPQB/FgegODcuexNyyg1mXccIdrBxQsTaq/3mz6Ph4gHitQke70hda39t7o+SwzDeyUdBJSy1DI5NBBAE0KzNxzcOI4tK4NBiMGIopQpK6MZ0Ro4BVlpFXn4P8DBWAEvq6tZ0g5OZ8rew4lXevPMFCnajqE6cAH638mAHnRGKab0W7XdO+xAg2ioPgjGQ3P3AJ1pEPDcvBwIlHZE/IDBYkuL8rRjQPFpDKnFmj3HX0d8A9Bv+Iuzbd91y4M5nSEPnwXo5YMvWk5gm23yrgWIhQnjfFV97b87HN9Pti1jAYPAVVl10RODba3PXpjFesU1bQ0YJP1eC0A4neGGqR+FmqRA5VN7WelIU6Ym72qva2FCHZgSkPh7KAnYAwbBWOggkNIEbng9lJ7UzwPn02eiH4LOmc4Z9+tUOUh8AD/AJQVZgZ8Xm8pKR5oC1yL0PGJV/ZjhgfbVH36/6+FnOAh62O+OhA6CQCN6MgjwpjjfIeYgxuup3t5U7bLrXH7Y5PFDwC+1JWWlI20xRV5CMlA50CexEse7JVwZluEgMNKT0q/Ro2vBZl6MsoFfApprZ8pOR5q4dZa6Glwf4gJReJI2XlXAOwbBIKNE0jb70pNKAz4J+EET8MDx4CGLLVMd6VMYyiKuwEDHIBK5d2ljddl1TzsBvtMs0Zd8wc8tzdKzvFOGoQE59+QOkEd1bVJ/F2xtDHgF/E7Oz9fHZr0bR1rlpg+twaDAeXP+bzEE/4Ndb96BgFcC3iFXtsc0AIrk+JzHa7QGAEfQ6enFibIM+zbm71oHAF5ZSDJQpz5jvgMAHhRgBNjynAVkT0jqHy/SiL6efHUXTNs54A3ef7DOaccDQBUPAnhaABJATTIQwNvxPXwfx5k1a1YIsHm1dKQ+kLuevAv4xANgLAH4GnQEXlkzJQeeBOCjdZrW9eJdwGc6AHrrAfAQ31OqYNtap2BdmtIFfOmDYCQkGHbYKPPcA6a2bF3rAr5KA6GvboN14Go2yD7X9dhd26F7E7q2Xdn/B6DxnJi+h342AAAAAElFTkSuQmCC;" vertex="1" parent="1">
          <mxGeometry x="105.23" y="210" width="139.53" height="190" as="geometry" />
        </mxCell>
        <mxCell id="8UL6sl8LKwnNtbLrQYEb-23" value="" style="endArrow=classic;html=1;rounded=0;" edge="1" parent="1">
          <mxGeometry width="50" height="50" relative="1" as="geometry">
            <mxPoint x="270" y="260" as="sourcePoint" />
            <mxPoint x="540" y="310" as="targetPoint" />
          </mxGeometry>
        </mxCell>
        <mxCell id="8UL6sl8LKwnNtbLrQYEb-24" value="git clone repo" style="edgeLabel;html=1;align=center;verticalAlign=middle;resizable=0;points=[];" vertex="1" connectable="0" parent="8UL6sl8LKwnNtbLrQYEb-23">
          <mxGeometry x="0.0782" y="-3" relative="1" as="geometry">
            <mxPoint as="offset" />
          </mxGeometry>
        </mxCell>
        <mxCell id="8UL6sl8LKwnNtbLrQYEb-25" value="" style="endArrow=classic;html=1;rounded=0;" edge="1" parent="1">
          <mxGeometry width="50" height="50" relative="1" as="geometry">
            <mxPoint x="540" y="330" as="sourcePoint" />
            <mxPoint x="270" y="280" as="targetPoint" />
          </mxGeometry>
        </mxCell>
        <mxCell id="8UL6sl8LKwnNtbLrQYEb-26" value="receive repo" style="edgeLabel;html=1;align=center;verticalAlign=middle;resizable=0;points=[];" vertex="1" connectable="0" parent="8UL6sl8LKwnNtbLrQYEb-25">
          <mxGeometry x="-0.2111" y="3" relative="1" as="geometry">
            <mxPoint as="offset" />
          </mxGeometry>
        </mxCell>
        <mxCell id="8UL6sl8LKwnNtbLrQYEb-37" style="edgeStyle=orthogonalEdgeStyle;rounded=0;orthogonalLoop=1;jettySize=auto;html=1;exitX=0.5;exitY=0;exitDx=0;exitDy=0;entryX=0.127;entryY=1.004;entryDx=0;entryDy=0;entryPerimeter=0;" edge="1" parent="1" source="8UL6sl8LKwnNtbLrQYEb-27" target="8UL6sl8LKwnNtbLrQYEb-36">
          <mxGeometry relative="1" as="geometry" />
        </mxCell>
        <mxCell id="8UL6sl8LKwnNtbLrQYEb-27" value="Inicia processo de build" style="shape=process;whiteSpace=wrap;html=1;backgroundOutline=1;" vertex="1" parent="1">
          <mxGeometry x="115" y="110" width="120" height="60" as="geometry" />
        </mxCell>
        <mxCell id="8UL6sl8LKwnNtbLrQYEb-36" value="&lt;br&gt;&lt;br&gt;&lt;br&gt;&lt;br&gt;&lt;br&gt;&lt;br&gt;&lt;br&gt;&lt;br&gt;&lt;br&gt;&lt;br&gt;Pipeline em execução" style="rounded=0;whiteSpace=wrap;html=1;fillColor=#d5e8d4;strokeColor=#82b366;" vertex="1" parent="1">
          <mxGeometry x="115" y="-110" width="465" height="110" as="geometry" />
        </mxCell>
        <mxCell id="8UL6sl8LKwnNtbLrQYEb-38" style="edgeStyle=orthogonalEdgeStyle;rounded=0;orthogonalLoop=1;jettySize=auto;html=1;exitX=1;exitY=0.5;exitDx=0;exitDy=0;fontSize=10;" edge="1" parent="1" source="8UL6sl8LKwnNtbLrQYEb-29" target="8UL6sl8LKwnNtbLrQYEb-30">
          <mxGeometry relative="1" as="geometry" />
        </mxCell>
        <mxCell id="8UL6sl8LKwnNtbLrQYEb-29" value="&amp;nbsp;git" style="ellipse;whiteSpace=wrap;html=1;" vertex="1" parent="1">
          <mxGeometry x="134.76" y="-80" width="65.24" height="50" as="geometry" />
        </mxCell>
        <mxCell id="8UL6sl8LKwnNtbLrQYEb-39" style="edgeStyle=orthogonalEdgeStyle;rounded=0;orthogonalLoop=1;jettySize=auto;html=1;exitX=1;exitY=0.5;exitDx=0;exitDy=0;entryX=0;entryY=0.5;entryDx=0;entryDy=0;fontSize=10;" edge="1" parent="1" source="8UL6sl8LKwnNtbLrQYEb-30" target="8UL6sl8LKwnNtbLrQYEb-31">
          <mxGeometry relative="1" as="geometry" />
        </mxCell>
        <mxCell id="8UL6sl8LKwnNtbLrQYEb-30" value="&amp;nbsp;unit-test" style="ellipse;whiteSpace=wrap;html=1;" vertex="1" parent="1">
          <mxGeometry x="224.76" y="-80" width="65.24" height="50" as="geometry" />
        </mxCell>
        <mxCell id="8UL6sl8LKwnNtbLrQYEb-40" style="edgeStyle=orthogonalEdgeStyle;rounded=0;orthogonalLoop=1;jettySize=auto;html=1;exitX=1;exitY=0.5;exitDx=0;exitDy=0;entryX=0;entryY=0.5;entryDx=0;entryDy=0;fontSize=10;" edge="1" parent="1" source="8UL6sl8LKwnNtbLrQYEb-31" target="8UL6sl8LKwnNtbLrQYEb-32">
          <mxGeometry relative="1" as="geometry" />
        </mxCell>
        <mxCell id="8UL6sl8LKwnNtbLrQYEb-31" value="build" style="ellipse;whiteSpace=wrap;html=1;" vertex="1" parent="1">
          <mxGeometry x="315" y="-80" width="65.24" height="50" as="geometry" />
        </mxCell>
        <mxCell id="8UL6sl8LKwnNtbLrQYEb-41" style="edgeStyle=orthogonalEdgeStyle;rounded=0;orthogonalLoop=1;jettySize=auto;html=1;exitX=1;exitY=0.5;exitDx=0;exitDy=0;entryX=0;entryY=0.5;entryDx=0;entryDy=0;fontSize=10;" edge="1" parent="1" source="8UL6sl8LKwnNtbLrQYEb-32" target="8UL6sl8LKwnNtbLrQYEb-33">
          <mxGeometry relative="1" as="geometry" />
        </mxCell>
        <mxCell id="8UL6sl8LKwnNtbLrQYEb-32" value="publish" style="ellipse;whiteSpace=wrap;html=1;" vertex="1" parent="1">
          <mxGeometry x="405" y="-80" width="65.24" height="50" as="geometry" />
        </mxCell>
        <mxCell id="8UL6sl8LKwnNtbLrQYEb-44" style="edgeStyle=orthogonalEdgeStyle;rounded=0;orthogonalLoop=1;jettySize=auto;html=1;exitX=1;exitY=0.5;exitDx=0;exitDy=0;entryX=0.4;entryY=0.1;entryDx=0;entryDy=0;entryPerimeter=0;fontSize=10;" edge="1" parent="1" source="8UL6sl8LKwnNtbLrQYEb-33" target="8UL6sl8LKwnNtbLrQYEb-43">
          <mxGeometry relative="1" as="geometry">
            <Array as="points">
              <mxPoint x="678" y="-55" />
            </Array>
          </mxGeometry>
        </mxCell>
        <mxCell id="8UL6sl8LKwnNtbLrQYEb-45" value="Deploy players_app" style="edgeLabel;html=1;align=center;verticalAlign=middle;resizable=0;points=[];fontSize=13;fontStyle=1" vertex="1" connectable="0" parent="8UL6sl8LKwnNtbLrQYEb-44">
          <mxGeometry x="0.1848" relative="1" as="geometry">
            <mxPoint as="offset" />
          </mxGeometry>
        </mxCell>
        <mxCell id="8UL6sl8LKwnNtbLrQYEb-33" value="&lt;font style=&quot;font-size: 10px;&quot;&gt;ansible_deploy&lt;/font&gt;" style="ellipse;whiteSpace=wrap;html=1;" vertex="1" parent="1">
          <mxGeometry x="495" y="-80" width="65.24" height="50" as="geometry" />
        </mxCell>
        <mxCell id="8UL6sl8LKwnNtbLrQYEb-43" value="Container &quot;cloud&quot;" style="ellipse;shape=cloud;whiteSpace=wrap;html=1;fontSize=10;" vertex="1" parent="1">
          <mxGeometry x="630" y="130" width="120" height="80" as="geometry" />
        </mxCell>
        <mxCell id="8UL6sl8LKwnNtbLrQYEb-46" value="IPMÀQUINA:9000" style="text;html=1;align=center;verticalAlign=middle;resizable=0;points=[];autosize=1;strokeColor=none;fillColor=none;fontSize=13;" vertex="1" parent="1">
          <mxGeometry x="625" y="205" width="130" height="30" as="geometry" />
        </mxCell>
        <mxCell id="8UL6sl8LKwnNtbLrQYEb-49" style="edgeStyle=orthogonalEdgeStyle;rounded=0;orthogonalLoop=1;jettySize=auto;html=1;exitX=0.35;exitY=0;exitDx=0;exitDy=0;exitPerimeter=0;fontSize=13;" edge="1" parent="1" source="8UL6sl8LKwnNtbLrQYEb-48" target="8UL6sl8LKwnNtbLrQYEb-46">
          <mxGeometry relative="1" as="geometry" />
        </mxCell>
        <mxCell id="8UL6sl8LKwnNtbLrQYEb-50" value="Acesso do cliente" style="edgeLabel;html=1;align=center;verticalAlign=middle;resizable=0;points=[];fontSize=13;" vertex="1" connectable="0" parent="8UL6sl8LKwnNtbLrQYEb-49">
          <mxGeometry x="-0.4182" relative="1" as="geometry">
            <mxPoint as="offset" />
          </mxGeometry>
        </mxCell>
        <mxCell id="8UL6sl8LKwnNtbLrQYEb-48" value="Cliente" style="points=[[0.35,0,0],[0.98,0.51,0],[1,0.71,0],[0.67,1,0],[0,0.795,0],[0,0.65,0]];verticalLabelPosition=bottom;sketch=0;html=1;verticalAlign=top;aspect=fixed;align=center;pointerEvents=1;shape=mxgraph.cisco19.user;fillColor=#005073;strokeColor=none;fontSize=13;" vertex="1" parent="1">
          <mxGeometry x="755" y="290" width="50" height="50" as="geometry" />
        </mxCell>
        <mxCell id="8UL6sl8LKwnNtbLrQYEb-51" value="" style="image;html=1;image=img/lib/clip_art/people/Construction_Worker_Woman_128x128.png;fontSize=13;" vertex="1" parent="1">
          <mxGeometry x="700" y="557.5" width="80" height="80" as="geometry" />
        </mxCell>
        <mxCell id="8UL6sl8LKwnNtbLrQYEb-52" value="" style="image;html=1;image=img/lib/clip_art/people/Construction_Worker_Man_Black_128x128.png;fontSize=13;" vertex="1" parent="1">
          <mxGeometry x="770" y="527.5" width="80" height="80" as="geometry" />
        </mxCell>
        <mxCell id="8UL6sl8LKwnNtbLrQYEb-53" value="" style="image;html=1;image=img/lib/clip_art/people/Construction_Worker_Man_128x128.png;fontSize=13;" vertex="1" parent="1">
          <mxGeometry x="630" y="527.5" width="80" height="80" as="geometry" />
        </mxCell>
        <mxCell id="8UL6sl8LKwnNtbLrQYEb-55" value="&lt;br&gt;&lt;span style=&quot;color: rgb(0, 0, 0); font-family: Helvetica; font-size: 13px; font-style: normal; font-variant-ligatures: normal; font-variant-caps: normal; font-weight: 400; letter-spacing: normal; orphans: 2; text-align: center; text-indent: 0px; text-transform: none; widows: 2; word-spacing: 0px; -webkit-text-stroke-width: 0px; background-color: rgb(248, 249, 250); text-decoration-thickness: initial; text-decoration-style: initial; text-decoration-color: initial; float: none; display: inline !important;&quot;&gt;Trabalhando no projeto e realizandp commit no git&lt;/span&gt;&lt;br&gt;" style="text;html=1;strokeColor=none;fillColor=none;align=center;verticalAlign=middle;whiteSpace=wrap;rounded=0;fontSize=13;" vertex="1" parent="1">
          <mxGeometry x="655" y="707.5" width="160" height="30" as="geometry" />
        </mxCell>
        <mxCell id="8UL6sl8LKwnNtbLrQYEb-59" value="alinhamento sobre o ambiente e solicitação de integração" style="text;html=1;strokeColor=none;fillColor=none;align=center;verticalAlign=middle;whiteSpace=wrap;rounded=0;fontSize=13;" vertex="1" parent="1">
          <mxGeometry x="470" y="530" width="150" height="30" as="geometry" />
        </mxCell>
      </root>
    </mxGraphModel>
  </diagram>
</mxfile>
